<svg xmlns="http://www.w3.org/2000/svg" viewBox="0 0 40 40"><path fill="#f5ce85" d="M4.5 38.5L4.5 19.5 25.5 19.5 25.5 32.5 32.5 32.5 32.5 19.5 35.5 19.5 35.5 38.5z"/><path fill="#967a44" d="M35,20v12v6h-3h-6H12H5V20h20v12v1h1h6h1v-1V20H35 M36,19h-4v13h-6V19H4v20h8h14h6h4v-7V19L36,19z"/><path fill="#dbf2ff" d="M10.5 23.5H19.5V32.5H10.5z"/><path fill="#4e7ab5" d="M19,24v8h-8v-8H19 M20,23H10v10h10V23L20,23z"/><g><path fill="#b08159" d="M1.5 19.5L1.5 19.227 9.187 12.5 30.812 12.5 38.5 19.227 38.5 19.5z"/><path fill="#704e34" d="M30.624,13l6.857,6H2.519l6.857-6H30.624 M31,12H9l-8,7l0,1h38v-1L31,12L31,12z"/></g><g><path fill="#b08159" d="M5.5 12.5L5.5 12.253 20 1.62 34.5 12.253 34.5 12.5z"/><path fill="#704e34" d="M20,2.24L33.309,12H6.691L20,2.24 M20,1L5,12v1h30v-1L20,1L20,1z"/></g></svg>