<svg xmlns="http://www.w3.org/2000/svg" baseProfile="basic" viewBox="0 0 100 100"><path fill="#ead6c7" d="M68,73c-4.325-1.622-7.188-2.659-8.907-3.27c-0.286-0.102-0.54-0.191-0.764-0.27 C57.528,69.178,57,68.425,57,67.576v-3.034c4.442-2.889,8-7.543,8-9.542c0-1,0-4,0-4c2,0,2.381-1.898,3-4c0.57-1.935,1-4,1-5 c0-1.875-3.257-2.5-3.257-2.5h-0.121c-0.031-1.75-0.325-9.907-2.871-15c0,0-6.25-2-12.75-2s-12.75,2-12.75,2 c-2.553,5.107-2.932,13.284-2.989,15.014C33.508,39.611,31,40.277,31,42c0,1,0.43,3.065,1,5c0.619,2.102,1,4,3,4c0,0,0,3,0,4 c0,1.999,3.558,6.653,8,9.542v3.034c0,0.849-0.528,1.602-1.329,1.884c-0.224,0.079-0.478,0.169-0.764,0.27 C39.188,70.341,36.325,71.378,32,73c-8,3-8,11-8,11h52C76,84,76,76,68,73z"/><path fill="#70b570" d="M68,73c-4.032-1.512-6.778-2.51-8.525-3.134l-0.792-0.354c-0.066,0.133-0.127,0.256-0.139,0.282 C58.466,69.967,56.563,74,50,74s-8.466-4.033-8.544-4.205c-0.018-0.041-0.079-0.164-0.143-0.292l-0.788,0.363 C38.778,70.49,36.032,71.488,32,73c-8,3-8,11-8,11h52C76,84,76,76,68,73z"/><polygon fill="#f8e55b" points="68.5,73.25 61.5,70.5 61.5,79.5 38.5,79.5 38.5,70.5 31.5,73.25 31.5,83.5 68.5,83.5"/><path fill="#bb7a54" d="M50,15.503C44.538,15.54,31.5,18.122,31.5,34.5c0,6,2.921,9,2.921,9s0-4,2.921-8 c5.602,0,19.714,0,25.316,0c2.921,4,2.921,8,2.921,8s2.921-3,2.921-9C68.5,18.122,55.462,15.54,50,15.503z"/><path fill="#f5905f" d="M46.5,13.79c-9.051,1.518-15.502,8.817-15.974,17.739c-0.029,0.54-0.455,0.971-0.996,0.971H29.5 c-0.552,0-1,0.448-1,1v2c0,0.552,0.448,1,1,1h41c0.552,0,1-0.448,1-1v-2c0-0.552-0.448-1-1-1h-0.03 c-0.54,0-0.967-0.431-0.996-0.971C69.002,22.607,62.551,15.308,53.5,13.79L46.5,13.79z"/><path fill="#fbb97f" d="M53.5,32.5v-20c0-0.552-0.448-1-1-1h-5c-0.552,0-1,0.448-1,1v20H53.5z"/><path fill="#fbb97f" d="M28.5,33.875v1.75c0,0.483,0.448,0.875,1,0.875h41c0.552,0,1-0.392,1-0.875v-1.75 c0-0.483-0.448-0.875-1-0.875h-0.03H29.53H29.5C28.948,33,28.5,33.392,28.5,33.875z"/><g><rect width="7" height="4" x="31.5" y="76" fill="#1f212b"/><rect width="7" height="4" x="61.5" y="76" fill="#1f212b"/><path fill="#1f212b" d="M50,55c-1.978,0-2.863-1.151-2.9-1.2c-0.165-0.221-0.12-0.534,0.101-0.7 c0.219-0.165,0.529-0.121,0.697,0.097C47.93,53.237,48.555,54,50,54c1.454,0,2.077-0.771,2.104-0.805 c0.169-0.216,0.483-0.256,0.699-0.09c0.217,0.167,0.262,0.476,0.098,0.694C52.863,53.849,51.978,55,50,55z"/><path fill="#1f212b" d="M50,60c-4.696,0-7.724-2.23-7.85-2.325c-0.166-0.124-0.199-0.358-0.075-0.524 c0.124-0.165,0.358-0.2,0.525-0.076C42.629,57.097,45.565,59,50,59s7.371-1.903,7.4-1.925c0.167-0.124,0.401-0.089,0.525,0.076 c0.124,0.166,0.09,0.4-0.075,0.524C57.724,57.77,54.696,60,50,60z"/><path fill="#1f212b" d="M43,40c-0.799,0-1.482,0.589-1.803,1.435C41.378,41.178,41.662,41,42,41c0.552,0,1,0.448,1,1 c0,0.552-0.448,1-1,1c-0.502,0-0.899-0.376-0.971-0.857C41.015,42.26,41,42.378,41,42.5c0,1.381,0.895,2.5,2,2.5s2-1.119,2-2.5 C45,41.119,44.105,40,43,40z"/><path fill="#1f212b" d="M57,40c-0.799,0-1.482,0.589-1.803,1.435C55.378,41.178,55.662,41,56,41c0.552,0,1,0.448,1,1 c0,0.552-0.448,1-1,1c-0.502,0-0.899-0.376-0.971-0.857C55.015,42.26,55,42.378,55,42.5c0,1.381,0.895,2.5,2,2.5s2-1.119,2-2.5 C59,41.119,58.105,40,57,40z"/><path fill="#1f212b" d="M50,67c-2.106,0-4.527-0.85-7-2.458l0.545-0.838C45.855,65.206,48.087,66,50,66 s4.145-0.794,6.455-2.296L57,64.542C54.527,66.15,52.106,67,50,67z"/><polygon fill="#1f212b" points="69,83.5 68,83.5 68,73.591 62,71.233 62,80 38,80 38,71.233 32,73.591 32,83.5 31,83.5 31,72.909 39,69.767 39,79 61,79 61,69.767 69,72.909"/><path fill="#1f212b" d="M50,75c-7.242,0-9.37-4.601-9.457-4.797c-0.112-0.252,0.001-0.546,0.252-0.658 c0.25-0.115,0.547-0.001,0.661,0.25C41.534,69.967,43.438,74,50,74c0.457,0,0.918-0.025,1.45-0.078 c0.28-0.032,0.52,0.173,0.548,0.447s-0.173,0.52-0.447,0.547C50.984,74.974,50.492,75,50,75z"/><path fill="#1f212b" d="M56.5,73.208c-0.16,0-0.317-0.076-0.414-0.219c-0.155-0.229-0.096-0.539,0.132-0.694 c1.693-1.151,2.32-2.488,2.326-2.502c0.115-0.25,0.411-0.36,0.662-0.247c0.25,0.113,0.362,0.408,0.25,0.659 c-0.029,0.064-0.734,1.598-2.675,2.916C56.695,73.18,56.597,73.208,56.5,73.208z"/><path fill="#1f212b" d="M53.5,74.563c-0.221,0-0.422-0.147-0.482-0.37c-0.072-0.267,0.086-0.541,0.353-0.612 c0.34-0.092,0.653-0.199,0.953-0.313c0.259-0.095,0.547,0.032,0.645,0.291c0.098,0.259-0.033,0.547-0.291,0.645 c-0.331,0.125-0.674,0.242-1.047,0.342C53.586,74.557,53.542,74.563,53.5,74.563z"/><path fill="#1f212b" d="M68.577,74.345l-0.106-0.05c-0.266-0.124-0.531-0.25-0.822-0.358 c-4.483-1.682-7.311-2.703-8.893-3.264l-0.768-0.273c-0.962-0.334-1.683-1.143-1.913-2.158C56.024,68.008,56,67.789,56,67.58v-3.04 c0-0.338,0.171-0.653,0.455-0.838C60.76,60.899,64,56.491,64,55v-4c0-0.553,0.448-1,1-1c0.949,0,1.274-0.629,1.898-2.792 l0.143-0.491C67.597,44.836,68,42.853,68,42c-0.021-0.059-0.256-0.333-1.007-0.646l0.77-1.846C69.247,40.127,70,40.965,70,42 c0,1.3-0.561,3.658-1.041,5.283l-0.139,0.479c-0.491,1.702-1.039,3.599-2.82,4.106V55c0,2.464-3.758,7.161-8,10.074v2.506 c0,0.066,0.009,0.144,0.028,0.228c0.074,0.328,0.311,0.597,0.63,0.708l0.77,0.273c1.586,0.563,4.426,1.588,8.923,3.274 c0.342,0.128,0.656,0.274,0.968,0.42l0.104,0.049L68.577,74.345z"/><path fill="#1f212b" d="M76,85H24c-0.552,0-1-0.447-1-1c0-0.087,0.099-8.73,8.649-11.937 c4.513-1.692,7.346-2.716,8.927-3.275l0.751-0.268c0.333-0.116,0.575-0.39,0.645-0.719C41.991,67.711,42,67.643,42,67.58v-2.506 c-4.242-2.913-8-7.61-8-10.074v-3.131c-1.781-0.508-2.329-2.404-2.82-4.106l-0.139-0.479C30.561,45.657,30,43.298,30,42 c0-0.939,0.62-1.718,1.842-2.313l0.877,1.797c-0.635,0.31-0.72,0.527-0.721,0.529c0.002,0.839,0.405,2.822,0.961,4.704l0.143,0.491 C33.726,49.371,34.051,50,35,50c0.265,0,0.52,0.105,0.707,0.293S36,50.734,36,51v4c0,1.491,3.24,5.899,7.545,8.702 C43.829,63.887,44,64.202,44,64.54v3.04c0,0.206-0.023,0.408-0.072,0.639c-0.214,1.009-0.954,1.847-1.93,2.186l-0.75,0.268 c-1.578,0.559-4.398,1.577-8.897,3.265c-5.689,2.134-6.976,6.96-7.267,9.063h49.831c-0.29-2.102-1.576-6.93-7.267-9.063 c-4.483-1.682-7.31-2.703-8.893-3.264l-0.768-0.273c-0.962-0.334-1.683-1.143-1.913-2.158C56.024,68.008,56,67.789,56,67.58v-3.04 c0-0.338,0.171-0.653,0.455-0.838C60.76,60.899,64,56.491,64,55v-4c0-0.553,0.448-1,1-1c0.949,0,1.274-0.629,1.898-2.792 l0.143-0.491C67.597,44.837,68,42.854,68,42l0,0c-0.004,0-0.132-0.278-1.015-0.646l0.77-1.846C69.245,40.129,70,40.968,70,42 c0,1.3-0.561,3.658-1.041,5.283l-0.139,0.479c-0.491,1.702-1.039,3.599-2.82,4.106V55c0,2.464-3.758,7.161-8,10.074v2.506 c0,0.066,0.009,0.144,0.028,0.228c0.074,0.328,0.311,0.597,0.63,0.708l0.77,0.273c1.586,0.563,4.426,1.588,8.923,3.274 C76.901,75.27,77,83.913,77,84C77,84.553,76.552,85,76,85z"/><path fill="#1f212b" d="M65.58,44c-0.063,0-0.127-0.013-0.188-0.037c-0.188-0.076-0.312-0.259-0.313-0.462 c0-0.032-0.034-3.278-2.179-6.746c-0.145-0.234-0.073-0.543,0.162-0.688c0.235-0.146,0.543-0.073,0.688,0.162 c1.454,2.351,2,4.575,2.206,5.932c0.676-1.063,1.62-2.978,1.935-5.721c0.031-0.274,0.273-0.474,0.554-0.44 c0.274,0.032,0.471,0.279,0.439,0.554c-0.549,4.784-2.849,7.194-2.947,7.295C65.841,43.947,65.711,44,65.58,44z"/><path fill="#1f212b" d="M34.421,44c-0.132,0-0.262-0.053-0.358-0.151c-0.098-0.101-2.4-2.513-2.948-7.3 c-0.032-0.274,0.166-0.522,0.44-0.554c0.268-0.027,0.522,0.166,0.553,0.44c0.314,2.746,1.259,4.661,1.936,5.726 c0.205-1.354,0.75-3.576,2.2-5.924c0.145-0.235,0.453-0.306,0.688-0.163c0.235,0.146,0.308,0.454,0.163,0.688 c-2.14,3.464-2.174,6.706-2.174,6.738c0,0.203-0.124,0.386-0.313,0.462C34.548,43.987,34.484,44,34.421,44z"/><path fill="#1f212b" d="M54,32.5h-1v-20c0-0.275-0.224-0.5-0.5-0.5h-5c-0.276,0-0.5,0.225-0.5,0.5v20h-1v-20 c0-0.827,0.673-1.5,1.5-1.5h5c0.827,0,1.5,0.673,1.5,1.5V32.5z"/><path fill="#1f212b" d="M70.5,37h-41c-0.827,0-1.5-0.673-1.5-1.5v-2c0-0.827,0.673-1.5,1.5-1.5 c0.298,0,0.511-0.214,0.526-0.497c0.486-9.183,7.226-16.669,16.391-18.206l0.165,0.986c-8.699,1.459-15.096,8.562-15.557,17.272 C30.982,32.365,30.325,33,29.53,33C29.224,33,29,33.225,29,33.5v2c0,0.275,0.224,0.5,0.5,0.5h41c0.276,0,0.5-0.225,0.5-0.5v-2 c0-0.275-0.224-0.5-0.5-0.5c-0.825,0-1.482-0.635-1.525-1.444c-0.461-8.711-6.858-15.813-15.557-17.272l0.165-0.986 c9.165,1.537,15.905,9.023,16.391,18.206C69.989,31.786,70.202,32,70.47,32c0.857,0,1.53,0.673,1.53,1.5v2 C72,36.327,71.327,37,70.5,37z"/><path fill="#1f212b" d="M33.482,33H29.53c-0.276,0-0.5-0.224-0.5-0.5s0.224-0.5,0.5-0.5h3.953c0.276,0,0.5,0.224,0.5,0.5 S33.759,33,33.482,33z"/><path fill="#1f212b" d="M38.5,33h-2c-0.276,0-0.5-0.224-0.5-0.5s0.224-0.5,0.5-0.5h2c0.276,0,0.5,0.224,0.5,0.5 S38.776,33,38.5,33z"/><path fill="#1f212b" d="M70.47,33H40.5c-0.276,0-0.5-0.224-0.5-0.5s0.224-0.5,0.5-0.5h29.97c0.276,0,0.5,0.224,0.5,0.5 S70.747,33,70.47,33z"/></g></svg>